<svg width="24" height="24" viewBox="0 0 24 24" fill="none" xmlns="http://www.w3.org/2000/svg">
<path d="M12 18.1923C12.3718 18.1923 12.6907 18.0625 12.9567 17.8029C13.2227 17.5432 13.3653 17.2243 13.3846 16.8461H10.6154C10.6346 17.2243 10.7772 17.5432 11.0433 17.8029C11.3093 18.0625 11.6282 18.1923 12 18.1923ZM12.0016 21.5C10.6877 21.5 9.45268 21.2506 8.29655 20.752C7.1404 20.2533 6.13472 19.5765 5.2795 18.7217C4.42427 17.8669 3.74721 16.8616 3.24833 15.706C2.74944 14.5504 2.5 13.3156 2.5 12.0017C2.5 10.6877 2.74933 9.45268 3.248 8.29655C3.74667 7.1404 4.42342 6.13472 5.27825 5.2795C6.1331 4.42427 7.13834 3.74721 8.29398 3.24833C9.44959 2.74944 10.6844 2.5 11.9983 2.5C13.3122 2.5 14.5473 2.74933 15.7034 3.248C16.8596 3.74667 17.8652 4.42342 18.7205 5.27825C19.5757 6.1331 20.2527 7.13834 20.7516 8.29398C21.2505 9.44959 21.5 10.6844 21.5 11.9983C21.5 13.3122 21.2506 14.5473 20.752 15.7034C20.2533 16.8596 19.5765 17.8652 18.7217 18.7205C17.8669 19.5757 16.8616 20.2527 15.706 20.7516C14.5504 21.2505 13.3156 21.5 12.0016 21.5ZM8.1923 15.5769H15.8077C16.0365 15.5769 16.2283 15.4995 16.3831 15.3447C16.5379 15.1899 16.6153 14.998 16.6153 14.7692C16.6153 14.5404 16.5379 14.3485 16.3831 14.1937C16.2283 14.0389 16.0365 13.9615 15.8077 13.9615H15.6153V11.3038C15.6153 10.3705 15.3721 9.51985 14.8855 8.7519C14.399 7.98397 13.7192 7.49615 12.8461 7.28845V6.6346C12.8461 6.38942 12.7663 6.18389 12.6067 6.01803C12.4471 5.85216 12.2448 5.76923 12 5.76923C11.7551 5.76923 11.5529 5.85216 11.3933 6.01803C11.2336 6.18389 11.1538 6.38942 11.1538 6.6346V7.28845C10.2808 7.49615 9.60096 7.98077 9.11443 8.7423C8.62789 9.50383 8.38462 10.3513 8.38462 11.2846V13.9615H8.1923C7.96345 13.9615 7.77163 14.0389 7.61683 14.1937C7.46203 14.3485 7.38462 14.5404 7.38462 14.7692C7.38462 14.998 7.46203 15.1899 7.61683 15.3447C7.77163 15.4995 7.96345 15.5769 8.1923 15.5769Z" fill="black"/>
</svg>
