<svg width="24" height="24" viewBox="0 0 24 24" fill="none" xmlns="http://www.w3.org/2000/svg">
<path d="M4.11538 19.6923V10.6154H4.0192C3.59742 10.6154 3.23878 10.4676 2.94328 10.1721C2.64776 9.87661 2.5 9.51796 2.5 9.09616V6.92309C2.5 6.5013 2.64776 6.14265 2.94328 5.84714C3.23878 5.55164 3.59742 5.40389 4.0192 5.40389H7.67118C7.53014 5.24107 7.4343 5.05771 7.38365 4.85381C7.33302 4.64993 7.3077 4.43584 7.3077 4.21156C7.3077 3.46371 7.56945 2.82804 8.09295 2.30454C8.61645 1.78104 9.25213 1.51929 9.99998 1.51929C10.3833 1.51929 10.7384 1.59974 11.0654 1.76064C11.3923 1.92154 11.6846 2.1366 11.9423 2.40584C12.2 2.12634 12.4923 1.9087 12.8192 1.75294C13.1461 1.59717 13.5012 1.51929 13.8846 1.51929C14.6324 1.51929 15.2681 1.78104 15.7916 2.30454C16.3151 2.82804 16.5769 3.46371 16.5769 4.21156C16.5769 4.43336 16.549 4.64426 16.4932 4.84426C16.4374 5.04426 16.3442 5.2308 16.2134 5.40389H19.9808C20.4025 5.40389 20.7612 5.55164 21.0567 5.84714C21.3522 6.14265 21.5 6.5013 21.5 6.92309V9.09616C21.5 9.51796 21.3522 9.87661 21.0567 10.1721C20.7612 10.4676 20.4025 10.6154 19.9808 10.6154H19.8846V19.6923C19.8846 20.1894 19.7076 20.615 19.3536 20.969C18.9996 21.323 18.574 21.5 18.0769 21.5H5.92305C5.42593 21.5 5.00038 21.323 4.64638 20.969C4.29238 20.615 4.11538 20.1894 4.11538 19.6923ZM13.8846 3.01924C13.5468 3.01924 13.2636 3.1335 13.0351 3.36204C12.8065 3.59057 12.6923 3.87374 12.6923 4.21156C12.6923 4.54939 12.8065 4.83257 13.0351 5.06109C13.2636 5.28962 13.5468 5.40389 13.8846 5.40389C14.2224 5.40389 14.5056 5.28962 14.7341 5.06109C14.9626 4.83257 15.0769 4.54939 15.0769 4.21156C15.0769 3.87374 14.9626 3.59057 14.7341 3.36204C14.5056 3.1335 14.2224 3.01924 13.8846 3.01924ZM8.80765 4.21156C8.80765 4.54939 8.92192 4.83257 9.15045 5.06109C9.37898 5.28962 9.66216 5.40389 9.99998 5.40389C10.3378 5.40389 10.621 5.28962 10.8495 5.06109C11.078 4.83257 11.1923 4.54939 11.1923 4.21156C11.1923 3.87374 11.078 3.59057 10.8495 3.36204C10.621 3.1335 10.3378 3.01924 9.99998 3.01924C9.66216 3.01924 9.37898 3.1335 9.15045 3.36204C8.92192 3.59057 8.80765 3.87374 8.80765 4.21156ZM3.99998 6.90386V9.11541H11.25V6.90386H3.99998ZM11.25 20V10.6154H5.61533V19.6923C5.61533 19.782 5.64418 19.8558 5.70188 19.9135C5.75958 19.9712 5.8333 20 5.92305 20H11.25ZM12.75 20H18.0769C18.1667 20 18.2404 19.9712 18.2981 19.9135C18.3558 19.8558 18.3846 19.782 18.3846 19.6923V10.6154H12.75V20ZM20 9.11541V6.90386H12.75V9.11541H20Z" fill="black"/>
</svg>
