<svg width="24" height="24" viewBox="0 0 24 24" fill="none" xmlns="http://www.w3.org/2000/svg">
<path d="M9.34613 12.8461H12.0961L12.85 14.3442C12.9269 14.5083 13.0404 14.633 13.1906 14.7182C13.3407 14.8035 13.4983 14.8461 13.6635 14.8461H16.9423C17.1984 14.8461 17.413 14.7595 17.5863 14.5863C17.7595 14.413 17.8461 14.1984 17.8461 13.9423V10.0577C17.8461 9.80159 17.7595 9.58693 17.5863 9.41368C17.413 9.24044 17.1984 9.15383 16.9423 9.15383H14.9038L14.15 7.65575C14.073 7.49165 13.9595 7.36698 13.8094 7.28173C13.6593 7.19646 13.5017 7.15383 13.3365 7.15383H9.05768C8.80159 7.15383 8.58693 7.24044 8.41368 7.41368C8.24044 7.58693 8.15383 7.80159 8.15383 8.05768V17.25C8.15383 17.4222 8.21009 17.5646 8.32263 17.6772C8.43514 17.7898 8.57744 17.8461 8.74953 17.8461C8.92161 17.8461 9.06407 17.7898 9.1769 17.6772C9.28972 17.5646 9.34613 17.4222 9.34613 17.25V12.8461ZM12.0016 21.5C10.6877 21.5 9.45268 21.2506 8.29655 20.752C7.1404 20.2533 6.13472 19.5765 5.2795 18.7217C4.42427 17.8669 3.74721 16.8616 3.24833 15.706C2.74944 14.5504 2.5 13.3156 2.5 12.0017C2.5 10.6877 2.74933 9.45268 3.248 8.29655C3.74667 7.1404 4.42342 6.13472 5.27825 5.2795C6.1331 4.42427 7.13834 3.74721 8.29398 3.24833C9.44959 2.74944 10.6844 2.5 11.9983 2.5C13.3122 2.5 14.5473 2.74933 15.7034 3.248C16.8596 3.74667 17.8652 4.42342 18.7205 5.27825C19.5757 6.1331 20.2527 7.13834 20.7516 8.29398C21.2505 9.44959 21.5 10.6844 21.5 11.9983C21.5 13.3122 21.2506 14.5473 20.752 15.7034C20.2533 16.8596 19.5765 17.8652 18.7217 18.7205C17.8669 19.5757 16.8616 20.2527 15.706 20.7516C14.5504 21.2505 13.3156 21.5 12.0016 21.5Z" fill="black"/>
</svg>
