<svg width="24" height="24" viewBox="0 0 24 24" fill="none" xmlns="http://www.w3.org/2000/svg">
<path d="M6.07178 18.9281H8.86253V13.9999C8.86253 13.6807 8.97231 13.4113 9.19188 13.1917C9.41144 12.9722 9.68083 12.8624 10 12.8624H14C14.3192 12.8624 14.5886 12.9722 14.8082 13.1917C15.0277 13.4113 15.1375 13.6807 15.1375 13.9999V18.9281H17.9283V10.0358L12 5.58957L6.07178 10.0358V18.9281ZM3.79675 18.9281V10.0358C3.79675 9.67624 3.87655 9.33563 4.03615 9.01394C4.19577 8.69226 4.41851 8.4258 4.70438 8.21457L10.6326 3.76837C11.0344 3.46185 11.4902 3.30859 12 3.30859C12.5098 3.30859 12.9656 3.46185 13.3674 3.76837L19.2957 8.21457C19.5815 8.4258 19.8043 8.69226 19.9639 9.01394C20.1235 9.33563 20.2033 9.67624 20.2033 10.0358V18.9281C20.2033 19.5579 19.9816 20.0945 19.5381 20.5379C19.0946 20.9814 18.558 21.2032 17.9283 21.2032H14.0897C13.7705 21.2032 13.5011 21.0934 13.2816 20.8738C13.062 20.6543 12.9522 20.3849 12.9522 20.0656V15.0477H11.0479V20.0656C11.0479 20.3849 10.9381 20.6543 10.7185 20.8738C10.4989 21.0934 10.2296 21.2032 9.91035 21.2032H6.07178C5.44206 21.2032 4.90546 20.9814 4.46198 20.5379C4.01849 20.0945 3.79675 19.5579 3.79675 18.9281Z" fill="black"/>
</svg>
