<svg width="24" height="24" viewBox="0 0 24 24" fill="none" xmlns="http://www.w3.org/2000/svg">
<path d="M4.5 18.9999V10.1537C4.5 9.86753 4.56402 9.59638 4.69207 9.34029C4.82012 9.08421 4.99712 8.87332 5.22307 8.70762L10.9154 4.41917C11.2313 4.17813 11.5923 4.05762 11.9984 4.05762C12.4046 4.05762 12.7666 4.17813 13.0846 4.41917L18.7769 8.70762C19.0028 8.87332 19.1798 9.08421 19.3079 9.34029C19.4359 9.59638 19.5 9.86753 19.5 10.1537V18.9999C19.5 19.4089 19.3522 19.7611 19.0567 20.0566C18.7612 20.3521 18.4089 20.4999 18 20.4999H14.8077C14.5516 20.4999 14.3369 20.4132 14.1637 20.24C13.9904 20.0668 13.9038 19.8521 13.9038 19.596V14.7114C13.9038 14.4553 13.8172 14.2407 13.6439 14.0674C13.4707 13.8942 13.2561 13.8076 13 13.8076H11C10.7439 13.8076 10.5292 13.8942 10.356 14.0674C10.1827 14.2407 10.0961 14.4553 10.0961 14.7114V19.596C10.0961 19.8521 10.0095 20.0668 9.83627 20.24C9.66304 20.4132 9.44838 20.4999 9.1923 20.4999H5.99997C5.59101 20.4999 5.23877 20.3521 4.94327 20.0566C4.64776 19.7611 4.5 19.4089 4.5 18.9999Z" fill="black"/>
</svg>
