<svg width="24" height="24" viewBox="0 0 24 24" fill="none" xmlns="http://www.w3.org/2000/svg">
<path d="M6 22C5.45 22 4.97917 21.8042 4.5875 21.4125C4.19583 21.0208 4 20.55 4 20V6C4 5.45 4.19583 4.97917 4.5875 4.5875C4.97917 4.19583 5.45 4 6 4H20C20.55 4 21.0208 4.19583 21.4125 4.5875C21.8042 4.97917 22 5.45 22 6V20C22 20.55 21.8042 21.0208 21.4125 21.4125C21.0208 21.8042 20.55 22 20 22H6ZM6 20H20V6H6V20ZM8 18H18C18.2 18 18.35 17.9083 18.45 17.725C18.55 17.5417 18.5333 17.3667 18.4 17.2L15.65 13.525C15.55 13.3917 15.4167 13.325 15.25 13.325C15.0833 13.325 14.95 13.3917 14.85 13.525L12.25 17L10.4 14.525C10.3 14.3917 10.1667 14.325 10 14.325C9.83333 14.325 9.7 14.3917 9.6 14.525L7.6 17.2C7.46667 17.3667 7.45 17.5417 7.55 17.725C7.65 17.9083 7.8 18 8 18ZM9.5 11C9.91667 11 10.2708 10.8542 10.5625 10.5625C10.8542 10.2708 11 9.91667 11 9.5C11 9.08333 10.8542 8.72917 10.5625 8.4375C10.2708 8.14583 9.91667 8 9.5 8C9.08333 8 8.72917 8.14583 8.4375 8.4375C8.14583 8.72917 8 9.08333 8 9.5C8 9.91667 8.14583 10.2708 8.4375 10.5625C8.72917 10.8542 9.08333 11 9.5 11Z" fill="black"/>
</svg>
