<svg width="60" height="60" viewBox="0 0 60 60" fill="none" xmlns="http://www.w3.org/2000/svg">
<path d="M50.1 11.1799C45.75 7.46989 40.11 5.21989 33.98 5.21989C20.28 5.21989 9.24003 16.3399 9.24003 30.0399C9.24003 43.7399 20.28 54.7799 33.98 54.7799C40.91 54.7799 47.11 51.9599 51.63 47.4499L55.58 50.2699C50.18 55.9899 42.53 59.6199 33.98 59.6199C17.62 59.6199 4.41003 46.4099 4.41003 30.0499C4.41003 13.6899 17.63 0.389893 33.99 0.389893C41.64 0.389893 48.49 3.28989 53.81 8.04989L50.1 11.1899V11.1799ZM44.22 15.7699C41.32 13.6699 37.77 12.4699 33.91 12.4699C24.24 12.4699 16.42 20.3699 16.42 30.0399C16.42 39.7099 24.24 47.5299 33.91 47.5299C38.34 47.5299 42.45 45.9199 45.51 43.1799L49.62 46.0799C45.59 49.9499 40.03 52.3699 33.99 52.3699C21.66 52.3699 11.67 42.3799 11.67 30.0499C11.67 17.7199 21.66 7.63989 33.99 7.63989C39.31 7.63989 44.22 9.56989 48.09 12.7199L44.22 15.7799V15.7699ZM40.72 20.2899C38.74 18.8599 36.32 18.0399 33.68 18.0399C27.08 18.0399 21.75 23.4299 21.75 30.0199C21.75 36.6099 27.08 41.9499 33.68 41.9499C36.7 41.9499 39.51 40.8499 41.6 38.9799L44.4 40.9599C41.65 43.5999 37.86 45.2499 33.74 45.2499C25.33 45.2499 18.51 38.4299 18.51 30.0199C18.51 21.6099 25.33 14.7399 33.74 14.7399C37.37 14.7399 40.72 16.0599 43.36 18.1999L40.72 20.2899Z" fill="#C83036"/>
</svg>
