<svg width="27" height="27" viewBox="0 0 27 27" fill="none" xmlns="http://www.w3.org/2000/svg">
<path d="M22.3799 5.18992C20.4599 3.54992 17.9699 2.55992 15.2599 2.55992C9.20994 2.55992 4.32994 7.46992 4.32994 13.5199C4.32994 19.5699 9.20994 24.4499 15.2599 24.4499C18.3199 24.4499 21.0599 23.1999 23.0499 21.2099L24.7899 22.4599C22.4099 24.9899 19.0199 26.5899 15.2499 26.5899C8.01994 26.5899 2.18994 20.7499 2.18994 13.5299C2.18994 6.30992 8.03994 0.419922 15.2599 0.419922C18.6399 0.419922 21.6699 1.69992 24.0199 3.79992L22.3799 5.18992ZM19.7799 7.21992C18.4999 6.28992 16.9299 5.75992 15.2199 5.75992C10.9499 5.75992 7.49994 9.24992 7.49994 13.5199C7.49994 17.7899 10.9499 21.2399 15.2199 21.2399C17.1799 21.2399 18.9899 20.5299 20.3499 19.3199L22.1599 20.5999C20.3799 22.3099 17.9199 23.3799 15.2499 23.3799C9.79994 23.3799 5.38994 18.9699 5.38994 13.5199C5.38994 8.06992 9.81994 3.61992 15.2599 3.61992C17.6099 3.61992 19.7799 4.46992 21.4899 5.85992L19.7799 7.20992V7.21992ZM18.2299 9.21992C17.3599 8.58992 16.2899 8.21992 15.1199 8.21992C12.2099 8.21992 9.84994 10.5999 9.84994 13.5099C9.84994 16.4199 12.2099 18.7799 15.1199 18.7799C16.4599 18.7799 17.6899 18.2899 18.6199 17.4699L19.8599 18.3399C18.6499 19.5099 16.9699 20.2299 15.1499 20.2299C11.4299 20.2299 8.41994 17.2199 8.41994 13.4999C8.41994 9.77992 11.4299 6.74992 15.1499 6.74992C16.7499 6.74992 18.2299 7.32992 19.3999 8.27992L18.2299 9.19992V9.21992Z" fill="#C83036"/>
</svg>
