<svg width="24" height="24" viewBox="0 0 24 24" fill="none" xmlns="http://www.w3.org/2000/svg">
<path d="M4.93428 19.2032C4.61506 19.2032 4.34567 19.0934 4.1261 18.8738C3.90654 18.6543 3.79675 18.3849 3.79675 18.0657C3.79675 17.7465 3.90654 17.4771 4.1261 17.2575C4.34567 17.0379 4.61506 16.9282 4.93428 16.9282H5.72503V10.1314C5.72503 8.69628 6.15265 7.4163 7.0079 6.29148C7.86315 5.16666 8.98136 4.43161 10.3625 4.08631V3.43416C10.3625 2.97762 10.5213 2.59057 10.8389 2.27301C11.1565 1.95542 11.5435 1.79663 12 1.79663C12.4565 1.79663 12.8436 1.95542 13.1612 2.27301C13.4787 2.59057 13.6375 2.97762 13.6375 3.43416V4.08631C15.0227 4.43161 16.1419 5.16566 16.9952 6.28848C17.8484 7.41131 18.275 8.6923 18.275 10.1314V16.9282H19.0658C19.385 16.9282 19.6544 17.0379 19.874 17.2575C20.0935 17.4771 20.2033 17.7465 20.2033 18.0657C20.2033 18.3849 20.0935 18.6543 19.874 18.8738C19.6544 19.0934 19.385 19.2032 19.0658 19.2032H4.93428ZM12.006 22.2689C11.4361 22.2689 10.9483 22.0671 10.5427 21.6635C10.1371 21.2599 9.93428 20.7731 9.93428 20.2032H14.0718C14.0718 20.7731 13.87 21.2599 13.4663 21.6635C13.0627 22.0671 12.5759 22.2689 12.006 22.2689Z" fill="black"/>
</svg>
