<svg width="24" height="24" viewBox="0 0 24 24" fill="none" xmlns="http://www.w3.org/2000/svg">
<path d="M13.75 12.7116C13.0513 12.7116 12.46 12.4696 11.976 11.9856C11.492 11.5017 11.2501 10.9103 11.2501 10.2116C11.2501 9.5129 11.492 8.92157 11.976 8.4376C12.46 7.95364 13.0513 7.71165 13.75 7.71165C14.4487 7.71165 15.0401 7.95364 15.524 8.4376C16.008 8.92157 16.25 9.5129 16.25 10.2116C16.25 10.9103 16.008 11.5017 15.524 11.9856C15.0401 12.4696 14.4487 12.7116 13.75 12.7116ZM7.15388 15.8077C6.65678 15.8077 6.23122 15.6307 5.8772 15.2767C5.5232 14.9227 5.3462 14.4972 5.3462 14.0001V6.42315C5.3462 5.92605 5.5232 5.50049 5.8772 5.14648C6.23122 4.79248 6.65678 4.61548 7.15388 4.61548H20.3461C20.8432 4.61548 21.2688 4.79248 21.6228 5.14648C21.9768 5.50049 22.1538 5.92605 22.1538 6.42315V14.0001C22.1538 14.4972 21.9768 14.9227 21.6228 15.2767C21.2688 15.6307 20.8432 15.8077 20.3461 15.8077H7.15388ZM8.65385 14.3078H18.8462C18.8462 13.8091 19.0232 13.3831 19.3772 13.0299C19.7312 12.6767 20.1567 12.5001 20.6539 12.5001V7.92313C20.1551 7.92313 19.7292 7.74613 19.376 7.39213C19.0228 7.03811 18.8462 6.61255 18.8462 6.11545H8.65385C8.65385 6.61417 8.47685 7.04013 8.12285 7.39333C7.76884 7.74653 7.34328 7.92313 6.84618 7.92313V12.5001C7.34489 12.5001 7.77085 12.6771 8.12405 13.0311C8.47725 13.3851 8.65385 13.8107 8.65385 14.3078ZM18.4231 19.3077H3.65393C3.15681 19.3077 2.73125 19.1307 2.37725 18.7767C2.02325 18.4227 1.84625 17.9971 1.84625 17.5V8.34623C1.84625 8.13373 1.91815 7.95561 2.06195 7.81188C2.20577 7.66813 2.38397 7.59625 2.59655 7.59625C2.80915 7.59625 2.98724 7.66813 3.13083 7.81188C3.27441 7.95561 3.3462 8.13373 3.3462 8.34623V17.5C3.3462 17.5769 3.37826 17.6475 3.44238 17.7116C3.50648 17.7757 3.57699 17.8077 3.65393 17.8077H18.4231C18.6356 17.8077 18.8137 17.8796 18.9574 18.0235C19.1012 18.1673 19.1731 18.3455 19.1731 18.5581C19.1731 18.7706 19.1012 18.9487 18.9574 19.0923C18.8137 19.2359 18.6356 19.3077 18.4231 19.3077ZM7.15388 14.3078H6.84618V6.11545H7.15388C7.07054 6.11545 6.99843 6.1459 6.93753 6.2068C6.87663 6.2677 6.84618 6.33982 6.84618 6.42315V14.0001C6.84618 14.0834 6.87663 14.1555 6.93753 14.2164C6.99843 14.2773 7.07054 14.3078 7.15388 14.3078Z" fill="black"/>
</svg>
