<svg width="24" height="24" viewBox="0 0 24 24" fill="none" xmlns="http://www.w3.org/2000/svg">
<path d="M9.825 20.7001C8.10833 20.2167 6.70833 19.2709 5.625 17.8625C4.54167 16.4542 4 14.8334 4 13C4 12.05 4.15833 11.1459 4.475 10.2875C4.79167 9.42922 5.24167 8.64172 5.825 7.92505C6.00833 7.72505 6.23333 7.62088 6.5 7.61255C6.76667 7.60422 7.00833 7.70838 7.225 7.92505C7.40833 8.10838 7.50417 8.33338 7.5125 8.60005C7.52083 8.86672 7.43333 9.11672 7.25 9.35005C6.85 9.86672 6.54167 10.4334 6.325 11.05C6.10833 11.6667 6 12.3167 6 13C6 14.35 6.39583 15.5542 7.1875 16.6125C7.97917 17.6709 9 18.3917 10.25 18.7751C10.4667 18.8417 10.6458 18.9667 10.7875 19.1501C10.9292 19.3334 11 19.5334 11 19.75C11 20.0834 10.8833 20.3459 10.65 20.5375C10.4167 20.7292 10.1417 20.7834 9.825 20.7001ZM14.175 20.7001C13.8583 20.7834 13.5833 20.725 13.35 20.5251C13.1167 20.3251 13 20.0584 13 19.725C13 19.5251 13.0708 19.3334 13.2125 19.1501C13.3542 18.9667 13.5333 18.8417 13.75 18.7751C15 18.3751 16.0208 17.6501 16.8125 16.6C17.6042 15.55 18 14.35 18 13C18 11.3334 17.4167 9.91672 16.25 8.75005C15.0833 7.58338 13.6667 7.00005 12 7.00005H11.925L12.325 7.40005C12.5083 7.58338 12.6 7.81672 12.6 8.10005C12.6 8.38338 12.5083 8.61672 12.325 8.80005C12.1417 8.98338 11.9083 9.07505 11.625 9.07505C11.3417 9.07505 11.1083 8.98338 10.925 8.80005L8.825 6.70005C8.725 6.60005 8.65417 6.49172 8.6125 6.37505C8.57083 6.25838 8.55 6.13338 8.55 6.00005C8.55 5.86672 8.57083 5.74172 8.6125 5.62505C8.65417 5.50838 8.725 5.40005 8.825 5.30005L10.925 3.20005C11.1083 3.01672 11.3417 2.92505 11.625 2.92505C11.9083 2.92505 12.1417 3.01672 12.325 3.20005C12.5083 3.38338 12.6 3.61672 12.6 3.90005C12.6 4.18338 12.5083 4.41672 12.325 4.60005L11.925 5.00005H12C14.2333 5.00005 16.125 5.77505 17.675 7.32505C19.225 8.87505 20 10.7667 20 13C20 14.8167 19.4583 16.4334 18.375 17.85C17.2917 19.2667 15.8917 20.2167 14.175 20.7001Z" fill="black"/>
</svg>
