<svg width="24" height="24" viewBox="0 0 24 24" fill="none" xmlns="http://www.w3.org/2000/svg">
<path d="M10.4808 21.5C10.2564 21.5 10.0622 21.4246 9.8981 21.274C9.734 21.1233 9.63528 20.9358 9.60195 20.7115L9.31157 18.4538C9.04362 18.3641 8.76894 18.2384 8.48752 18.0769C8.2061 17.9153 7.9545 17.7422 7.7327 17.5576L5.64425 18.4384C5.43015 18.532 5.21765 18.5429 5.00675 18.4711C4.79585 18.3993 4.63014 18.2647 4.50962 18.0673L3.00582 15.4481C2.8917 15.2506 2.85645 15.0397 2.90005 14.8154C2.94363 14.591 3.0558 14.4102 3.23657 14.2731L5.04427 12.9058C5.02119 12.757 5.00484 12.6077 4.99522 12.4577C4.9856 12.3077 4.9808 12.1583 4.9808 12.0096C4.9808 11.8673 4.9856 11.7227 4.99522 11.5759C5.00484 11.4291 5.02119 11.2686 5.04427 11.0942L3.23657 9.72688C3.0558 9.58971 2.94203 9.40894 2.89525 9.18458C2.84845 8.96023 2.8853 8.74934 3.00582 8.5519L4.50962 5.95195C4.63014 5.75452 4.79425 5.6199 5.00195 5.5481C5.20963 5.4763 5.42052 5.4872 5.63462 5.5808L7.72307 6.45195C7.9641 6.26092 8.22148 6.08623 8.4952 5.9279C8.76893 5.76955 9.03785 5.6423 9.30195 5.54615L9.60195 3.28848C9.63528 3.06411 9.734 2.87661 9.8981 2.72598C10.0622 2.57533 10.2564 2.5 10.4808 2.5H13.5096C13.7339 2.5 13.9298 2.57533 14.0971 2.72598C14.2644 2.87661 14.3647 3.06411 14.398 3.28848L14.6884 5.55578C14.9884 5.66474 15.2599 5.79198 15.5029 5.9375C15.7458 6.08302 15.991 6.2545 16.2384 6.45195L18.3654 5.5808C18.5795 5.4872 18.7904 5.4747 18.998 5.5433C19.2057 5.61188 19.3699 5.74489 19.4904 5.94233L20.9942 8.5519C21.1147 8.74934 21.1515 8.96023 21.1047 9.18458C21.058 9.40894 20.9442 9.58971 20.7634 9.72688L18.9173 11.123C18.9532 11.2846 18.9727 11.4355 18.9759 11.5759C18.9791 11.7163 18.9807 11.8577 18.9807 12C18.9807 12.1359 18.9775 12.274 18.9711 12.4144C18.9647 12.5548 18.9416 12.7154 18.9019 12.8962L20.7288 14.2731C20.9096 14.4102 21.0233 14.591 21.0701 14.8154C21.1169 15.0397 21.0801 15.2506 20.9596 15.4481L19.4557 18.0519C19.3352 18.2493 19.167 18.3849 18.9509 18.4586C18.7349 18.5323 18.5198 18.5224 18.3057 18.4288L16.2384 17.548C15.991 17.7455 15.7384 17.9201 15.4807 18.0721C15.223 18.224 14.9589 18.348 14.6884 18.4442L14.398 20.7115C14.3647 20.9358 14.2644 21.1233 14.0971 21.274C13.9298 21.4246 13.7339 21.5 13.5096 21.5H10.4808ZM11 20H12.9654L13.325 17.3211C13.8352 17.1878 14.3016 16.9984 14.724 16.7529C15.1465 16.5074 15.5538 16.1917 15.9461 15.8058L18.4308 16.85L19.4154 15.15L17.2461 13.5154C17.3295 13.2564 17.3862 13.0025 17.4163 12.7538C17.4465 12.5051 17.4615 12.2538 17.4615 12C17.4615 11.7397 17.4465 11.4884 17.4163 11.2461C17.3862 11.0038 17.3295 10.7564 17.2461 10.5038L19.4346 8.84998L18.45 7.14998L15.9365 8.2096C15.6019 7.8519 15.201 7.53588 14.7336 7.26153C14.2663 6.98716 13.7936 6.79293 13.3154 6.67883L13 3.99998H11.0154L10.6846 6.6692C10.1744 6.78972 9.7032 6.97433 9.27115 7.22305C8.8391 7.47177 8.42692 7.79228 8.03462 8.1846L5.55 7.14998L4.56537 8.84998L6.725 10.4596C6.64166 10.6968 6.58333 10.9436 6.55 11.2C6.51666 11.4564 6.5 11.7263 6.5 12.0096C6.5 12.2699 6.51666 12.525 6.55 12.775C6.58333 13.025 6.63845 13.2718 6.71537 13.5154L4.56537 15.15L5.55 16.85L8.025 15.8C8.40448 16.1897 8.81025 16.509 9.2423 16.7577C9.67435 17.0064 10.1519 17.1974 10.675 17.3308L11 20ZM12.0115 15C12.8436 15 13.5516 14.708 14.1355 14.124C14.7195 13.54 15.0115 12.832 15.0115 12C15.0115 11.1679 14.7195 10.4599 14.1355 9.87595C13.5516 9.29198 12.8436 9 12.0115 9C11.1692 9 10.4587 9.29198 9.87982 9.87595C9.30099 10.4599 9.01157 11.1679 9.01157 12C9.01157 12.832 9.30099 13.54 9.87982 14.124C10.4587 14.708 11.1692 15 12.0115 15Z" fill="#AEAEB2"/>
</svg>
