<svg width="24" height="24" viewBox="0 0 24 24" fill="none" xmlns="http://www.w3.org/2000/svg">
<path d="M2.36542 19.6731V4.78847C2.36542 4.6366 2.39714 4.49992 2.46059 4.37842C2.52406 4.25692 2.61605 4.14937 2.73657 4.05579L6.58269 1.26734C6.74506 1.15324 6.92219 1.09619 7.11409 1.09619C7.30598 1.09619 7.48397 1.15324 7.64807 1.26734L11.4942 4.05579C11.6147 4.14937 11.7067 4.25692 11.7702 4.37842C11.8336 4.49992 11.8654 4.6366 11.8654 4.78847V7.07697H20.7307C20.9868 7.07697 21.2015 7.16358 21.3747 7.33682C21.548 7.51005 21.6346 7.72472 21.6346 7.98082V19.6731C21.6346 19.9292 21.548 20.1438 21.3747 20.3171C21.2015 20.4903 20.9868 20.5769 20.7307 20.5769H3.26924C3.01316 20.5769 2.7985 20.4903 2.62527 20.3171C2.45203 20.1438 2.36542 19.9292 2.36542 19.6731ZM3.86537 19.077H6.36539V16.5769H3.86537V19.077ZM3.86537 15.077H6.36539V12.5769H3.86537V15.077ZM3.86537 11.077H6.36539V8.57694H3.86537V11.077ZM3.86537 7.07697H6.36539V4.57694H3.86537V7.07697ZM7.86537 7.07697H10.3654V4.57694H7.86537V7.07697ZM7.86537 19.077H20.1346V8.57694H7.86537V19.077ZM14.8077 11.077H17C17.2125 11.077 17.3906 11.1489 17.5344 11.2927C17.6781 11.4365 17.75 11.6147 17.75 11.8273C17.75 12.0399 17.6781 12.218 17.5344 12.3616C17.3906 12.5051 17.2125 12.5769 17 12.5769H14.8077C14.5952 12.5769 14.4171 12.505 14.2733 12.3612C14.1296 12.2174 14.0577 12.0392 14.0577 11.8266C14.0577 11.614 14.1296 11.4359 14.2733 11.2923C14.4171 11.1488 14.5952 11.077 14.8077 11.077ZM14.8077 15.077H17C17.2125 15.077 17.3906 15.1489 17.5344 15.2927C17.6781 15.4365 17.75 15.6147 17.75 15.8273C17.75 16.0399 17.6781 16.218 17.5344 16.3616C17.3906 16.5051 17.2125 16.5769 17 16.5769H14.8077C14.5952 16.5769 14.4171 16.505 14.2733 16.3612C14.1296 16.2174 14.0577 16.0392 14.0577 15.8266C14.0577 15.614 14.1296 15.4359 14.2733 15.2923C14.4171 15.1488 14.5952 15.077 14.8077 15.077ZM11.8654 11.8273C11.8654 12.0399 11.7935 12.218 11.6496 12.3616C11.5058 12.5051 11.3276 12.5769 11.115 12.5769C10.9025 12.5769 10.7244 12.505 10.5808 12.3612C10.4372 12.2174 10.3654 12.0392 10.3654 11.8266C10.3654 11.614 10.4373 11.4359 10.5811 11.2923C10.7249 11.1488 10.9031 11.077 11.1157 11.077C11.3283 11.077 11.5064 11.1489 11.65 11.2927C11.7936 11.4365 11.8654 11.6147 11.8654 11.8273ZM11.115 16.5769C10.9025 16.5769 10.7244 16.505 10.5808 16.3612C10.4372 16.2174 10.3654 16.0392 10.3654 15.8266C10.3654 15.614 10.4373 15.4359 10.5811 15.2923C10.7249 15.1488 10.9031 15.077 11.1157 15.077C11.3283 15.077 11.5064 15.1489 11.65 15.2927C11.7936 15.4365 11.8654 15.6147 11.8654 15.8273C11.8654 16.0399 11.7935 16.218 11.6496 16.3616C11.5058 16.5051 11.3276 16.5769 11.115 16.5769Z" fill="black"/>
</svg>
