<svg width="24" height="24" viewBox="0 0 24 24" fill="none" xmlns="http://www.w3.org/2000/svg">
<path d="M13.8731 20.6019C13.9051 20.6147 13.934 20.6212 13.9596 20.6212C13.9852 20.6212 14.0141 20.6147 14.0461 20.6019L19.9288 18.7808C19.8776 18.5538 19.7718 18.3798 19.6115 18.2586C19.4512 18.1375 19.2698 18.0769 19.0673 18.0769H14.17C13.7336 18.0769 13.3628 18.0602 13.0577 18.0269C12.7526 17.9936 12.4391 17.9205 12.1173 17.8077L10.5481 17.2942C10.3464 17.2301 10.2014 17.1019 10.1131 16.9096C10.0249 16.7173 10.0128 16.5215 10.0769 16.3221C10.141 16.1228 10.265 15.9766 10.449 15.8837C10.633 15.7907 10.8263 15.7763 11.0288 15.8404L12.3288 16.2962C12.6314 16.3923 12.9699 16.4606 13.3442 16.501C13.7186 16.5414 14.2038 16.5667 14.7998 16.577H15.0673C15.0673 16.3295 15.0115 16.116 14.9 15.9366C14.7885 15.7571 14.6417 15.6359 14.4596 15.5731L8.65769 13.4423C8.63846 13.4359 8.62082 13.4311 8.60479 13.4279C8.58877 13.4247 8.57115 13.4231 8.55192 13.4231H6.70189V18.5769L13.8731 20.6019ZM13.4827 22.0711L6.70189 20.1269C6.58779 20.541 6.35574 20.8733 6.00574 21.124C5.65574 21.3746 5.28523 21.5 4.89422 21.5H3.50964C3.01252 21.5 2.58697 21.3229 2.23297 20.9689C1.87897 20.6149 1.70197 20.1894 1.70197 19.6923V13.7308C1.70197 13.2337 1.87897 12.8081 2.23297 12.4541C2.58697 12.1001 3.01252 11.9231 3.50964 11.9231H8.54084C8.64566 11.9231 8.75191 11.9347 8.85959 11.9577C8.96729 11.9808 9.06729 12.0077 9.15959 12.0385L14.9865 14.1847C15.4404 14.3526 15.8173 14.6497 16.1173 15.076C16.4173 15.5023 16.5673 16.0026 16.5673 16.577H19.0673C19.7852 16.577 20.3702 16.8087 20.8221 17.2721C21.274 17.7356 21.5 18.3372 21.5 19.0769C21.5 19.3602 21.425 19.5884 21.275 19.7615C21.125 19.9346 20.8981 20.0718 20.5942 20.173L14.5269 22.0557C14.3628 22.1096 14.1904 22.1381 14.0096 22.1413C13.8288 22.1445 13.6532 22.1211 13.4827 22.0711ZM3.20194 19.6923C3.20194 19.782 3.23078 19.8557 3.28847 19.9134C3.34617 19.9711 3.41989 20 3.50964 20H4.89422C4.98397 20 5.05769 19.9759 5.11539 19.9279C5.17309 19.8798 5.20194 19.8012 5.20194 19.6923V13.4231H3.50964C3.41989 13.4231 3.34617 13.4519 3.28847 13.5096C3.23078 13.5673 3.20194 13.6411 3.20194 13.7308V19.6923ZM15.846 11.9788C15.6217 11.9788 15.4012 11.9378 15.1845 11.8557C14.9678 11.7737 14.7697 11.6506 14.5904 11.4865L11.8885 8.86343C11.4102 8.40189 11.008 7.88814 10.6817 7.32218C10.3555 6.75619 10.1923 6.13983 10.1923 5.47308C10.1923 4.64723 10.4814 3.94525 11.0594 3.36715C11.6375 2.78905 12.3395 2.5 13.1654 2.5C13.7051 2.5 14.2035 2.63013 14.6606 2.8904C15.1176 3.15067 15.5128 3.48208 15.8461 3.88463C16.1795 3.48208 16.5747 3.15067 17.0317 2.8904C17.4888 2.63013 17.9872 2.5 18.5269 2.5C19.3527 2.5 20.0547 2.78905 20.6328 3.36715C21.2109 3.94525 21.5 4.64723 21.5 5.47308C21.5 6.13983 21.3394 6.75619 21.0182 7.32218C20.6971 7.88814 20.2974 8.40189 19.8192 8.86343L17.1019 11.4865C16.9225 11.6506 16.7244 11.7737 16.5076 11.8557C16.2908 11.9378 16.0703 11.9788 15.846 11.9788ZM16.0577 10.4019L18.7058 7.8327C19.0417 7.5032 19.3413 7.14486 19.6048 6.75768C19.8683 6.37051 20 5.94231 20 5.47308C20 5.06153 19.8574 4.71313 19.5721 4.42788C19.2868 4.14261 18.9384 3.99998 18.5269 3.99998C18.2102 3.99998 17.9205 4.08267 17.6577 4.24805C17.3948 4.41345 17.1628 4.62308 16.9615 4.87693L16.5154 5.41535C16.3431 5.62305 16.1205 5.7269 15.8477 5.7269C15.5749 5.7269 15.3513 5.62305 15.1769 5.41535L14.7308 4.87693C14.5295 4.62308 14.2974 4.41345 14.0346 4.24805C13.7718 4.08267 13.482 3.99998 13.1654 3.99998C12.7538 3.99998 12.4054 4.14261 12.1202 4.42788C11.8349 4.71313 11.6923 5.06153 11.6923 5.47308C11.6923 5.94231 11.824 6.37051 12.0875 6.75768C12.3509 7.14486 12.6506 7.5032 12.9865 7.8327L15.6346 10.4019C15.6923 10.4596 15.7628 10.4885 15.8461 10.4885C15.9295 10.4885 16 10.4596 16.0577 10.4019Z" fill="black"/>
</svg>
